<svg width="71.05" height="35.601" viewBox="0 0 71.05 35.601" xmlns="http://www.w3.org/2000/svg"><g id="svgGroup" stroke-linecap="round" fill-rule="evenodd" font-size="9pt" stroke="#ffffff" stroke-width="0.10mm" fill="#ffffff" style="stroke:#ffffff;stroke-width:0.10mm;fill:#ffffff"><path d="M 7.45 22.201 L 9.45 22.201 L 18.05 35.001 L 26.9 35.001 L 17.25 21.301 A 10.576 10.576 0 0 0 24.311 13.018 A 11.666 11.666 0 0 0 24.45 11.201 A 11.462 11.462 0 0 0 23.238 5.862 C 21.915 3.315 19.575 1.544 16.545 0.657 A 17.432 17.432 0 0 0 11.65 0.001 L 0 0.001 L 0 35.001 L 7.45 35.001 L 7.45 22.201 Z M 38.55 22.201 L 40.55 22.201 L 49.15 35.001 L 58 35.001 L 48.35 21.301 A 10.576 10.576 0 0 0 55.411 13.018 A 11.666 11.666 0 0 0 55.55 11.201 A 11.462 11.462 0 0 0 54.338 5.862 C 53.015 3.315 50.675 1.544 47.645 0.657 A 17.432 17.432 0 0 0 42.75 0.001 L 31.1 0.001 L 31.1 35.001 L 38.55 35.001 L 38.55 22.201 Z M 7.45 6.751 L 11.7 6.751 C 14.466 6.751 16.551 8.111 16.86 10.673 A 5.657 5.657 0 0 1 16.9 11.351 A 4.737 4.737 0 0 1 16.382 13.585 C 15.792 14.704 14.733 15.462 13.392 15.8 A 6.924 6.924 0 0 1 11.7 16.001 L 7.45 16.001 L 7.45 6.751 Z M 38.55 6.751 L 42.8 6.751 C 45.566 6.751 47.651 8.111 47.96 10.673 A 5.657 5.657 0 0 1 48 11.351 A 4.737 4.737 0 0 1 47.482 13.585 C 46.892 14.704 45.833 15.462 44.492 15.8 A 6.924 6.924 0 0 1 42.8 16.001 L 38.55 16.001 L 38.55 6.751 Z M 62.15 31.201 A 4.337 4.337 0 0 0 65.954 35.558 A 4.848 4.848 0 0 0 66.6 35.601 A 4.457 4.457 0 0 0 69.469 34.586 A 4.381 4.381 0 0 0 71.05 31.201 C 71.05 28.801 69.05 26.801 66.6 26.801 C 64.1 26.801 62.15 28.801 62.15 31.201 Z" vector-effect="non-scaling-stroke"/></g></svg>